<svg id="visual" viewBox="0 0 900 600" width="900" height="600" xmlns="http://www.w3.org/2000/svg" xmlns:xlink="http://www.w3.org/1999/xlink" version="1.1"><rect x="0" y="0" width="900" height="600" fill="#c4ffb0"></rect><path d="M0 147L21.5 157.5C43 168 86 189 128.8 187.7C171.7 186.3 214.3 162.7 257.2 153.7C300 144.7 343 150.3 385.8 142.2C428.7 134 471.3 112 514.2 102.5C557 93 600 96 642.8 114C685.7 132 728.3 165 771.2 180C814 195 857 192 878.5 190.5L900 189L900 0L878.5 0C857 0 814 0 771.2 0C728.3 0 685.7 0 642.8 0C600 0 557 0 514.2 0C471.3 0 428.7 0 385.8 0C343 0 300 0 257.2 0C214.3 0 171.7 0 128.8 0C86 0 43 0 21.5 0L0 0Z" fill="#f3a738" stroke-linecap="round" stroke-linejoin="miter"></path></svg>