<svg id="visual" viewBox="0 0 900 600" width="900" height="600" xmlns="http://www.w3.org/2000/svg" xmlns:xlink="http://www.w3.org/1999/xlink" version="1.1"><rect x="0" y="0" width="900" height="600" fill="#c4ffb0"></rect><path d="M0 451L21.5 440.5C43 430 86 409 128.8 410.3C171.7 411.7 214.3 435.3 257.2 444.3C300 453.3 343 447.7 385.8 455.8C428.7 464 471.3 486 514.2 495.5C557 505 600 502 642.8 484C685.7 466 728.3 433 771.2 418C814 403 857 406 878.5 407.5L900 409L900 601L878.5 601C857 601 814 601 771.2 601C728.3 601 685.7 601 642.8 601C600 601 557 601 514.2 601C471.3 601 428.7 601 385.8 601C343 601 300 601 257.2 601C214.3 601 171.7 601 128.8 601C86 601 43 601 21.5 601L0 601Z" fill="#f3a738" stroke-linecap="round" stroke-linejoin="miter"></path></svg>